<svg xmlns="http://www.w3.org/2000/svg" viewBox="170 145 340 1" width="340" height="120">
  <g>
    <path d="M221.323 90.159c-28 0-46 20-46 46v60l12-11 12 11 12-11 10 11 12-11 12 11 12-11v-49c0-26-8-46-36-46Z" fill="none" stroke="#8A6BFF" stroke-width="2.5" stroke-linejoin="round"/>
    <rect x="208.323" y="122.159" width="9" height="15" rx="4.5" fill="#8A6BFF"/>
    <rect x="225.323" y="122.159" width="9" height="15" rx="4.5" fill="#8A6BFF"/>
    <path d="M305.085 351.141c-11.768-2.015-16.728-9.721-20.538-20.127-12.015-32.812-24.981-65.275-37.557-97.882a128484 128484 0 0 1-53.118-137.888c-1.839-4.784-3.843-9.495-2.741-14.975 2.579-12.816 14.689-19.724 26.857-15.054 44.278 16.995 88.561 33.978 132.831 50.991 38.06 14.627 76.158 29.154 114.124 44.02 11.358 4.447 15.743 15.975 11.136 26.645-2.361 5.468-6.783 8.492-12.062 10.53a42991 42991 0 0 1-61.955 23.858c-11.65 4.478-23.29 8.981-34.982 13.345-2.533.946-4.146 2.339-5.124 4.927-10.77 28.483-21.622 56.934-32.47 85.388-1.836 4.815-3.643 9.647-5.663 14.386-3.067 7.191-9.227 10.123-16.75 11.664-.766.172-1.211.172-1.988.172M77.374 93.295c3.771-1.113 7.226-1.318 10.743-1.297 15.639.095 31.279.077 46.918.14 4.452.018 8.747.751 11.546 4.689 4.973 6.996.433 17.139-8.334 17.343-18.955.44-37.929.216-56.893.008-4.739-.052-8.138-2.948-9.616-7.478-1.724-5.284.157-9.653 5.636-13.405M241.755-24.858c-.046 11.662.131 22.831-.207 33.984-.303 9.999-8.947 15.344-16.815 10.783-3.936-2.282-5.154-6.081-5.181-10.18-.12-17.826-.13-35.654-.014-53.48.045-6.873 4.396-11.798 10.173-12.122 6.198-.347 10.899 3.47 11.61 10.555.663 6.601.329 13.303.434 20.46M131.137 19.757c-4.781-4.877-9.443-9.392-13.765-14.212-3.309-3.689-3.817-8.026-1.334-12.478 2.534-4.544 6.658-5.662 11.49-5.221 2.662.243 4.605 1.713 6.406 3.518 12.455 12.476 24.956 24.905 37.37 37.421 5.419 5.463 5.788 11.934 1.189 16.811-4.221 4.476-10.906 4.364-16.442-.933-8.397-8.036-16.451-16.432-24.914-24.906m-4.852 171.924c10.278-10.229 20.207-20.31 30.386-30.131 6.158-5.941 14.254-4.579 17.848 2.677 2.286 4.613 1.306 8.962-2.118 12.412a3607 3607 0 0 1-39.686 39.334c-4.028 3.935-10.515 3.791-14.534.148-4.272-3.873-4.948-10.303-1.164-14.872 2.749-3.318 5.998-6.223 9.268-9.568M315.416 2.804c3.889-3.894 7.515-7.553 11.158-11.195 4.626-4.626 11.781-5.11 16.165-1.182 4.324 3.875 4.326 11.774-.1 16.061-13.244 12.825-26.067 26.084-39.236 38.989-4.46 4.371-11.213 4.008-15.27-.211-3.932-4.09-3.848-11.32.555-15.81 8.727-8.898 17.637-17.616 26.728-26.652" transform="translate(202 148)scale(.15696)" fill="#0D0D0D"/>
  </g>
  <g id="svgGroup" stroke-linecap="round" fill-rule="evenodd" fill="#0D0D0D" style="translate:286px 90px;scale:0.75">
    <path fill="#8A6BFF" d="M 37.061 26.172 Q 33.985 22.168 29.932 20.02 Q 25.88 17.871 21.094 17.871 Q 15.04 17.871 10.255 20.581 Q 5.469 23.291 2.735 28.369 Q 0.001 33.447 0.001 40.283 Q 0.001 47.119 2.735 52.197 Q 5.469 57.275 10.255 59.985 Q 15.04 62.695 21.094 62.695 Q 30.518 62.695 36.573 55.078 L 36.573 64.893 Q 36.573 70.459 33.155 73.657 Q 29.737 76.856 22.999 76.856 Q 19.141 76.856 14.942 76.074 Q 10.743 75.293 6.934 73.926 Q 6.397 73.731 5.86 73.731 Q 3.956 73.731 3.077 76.416 Q 2.686 77.588 2.686 78.369 Q 2.686 80.274 4.59 80.957 Q 8.741 82.471 13.526 83.276 Q 18.311 84.082 22.999 84.082 Q 29.59 84.082 34.278 81.885 Q 38.965 79.688 41.431 75.513 Q 43.897 71.338 43.897 65.527 L 43.897 25.586 L 47.901 25.586 Q 49.561 25.586 50.269 24.829 Q 50.977 24.072 50.977 22.266 Q 50.977 20.459 50.269 19.702 Q 49.561 18.945 47.901 18.945 L 40.137 18.945 Q 38.477 18.946 37.769 19.702 Q 37.061 20.459 37.061 22.266 L 37.061 26.172 Z M 21.583 25.098 Q 25.928 25.098 29.322 26.904 Q 32.715 28.711 34.644 32.153 Q 36.573 35.596 36.573 40.283 Q 36.573 44.971 34.644 48.413 Q 32.715 51.856 29.322 53.662 Q 25.928 55.469 21.583 55.469 Q 17.237 55.469 14.112 53.54 Q 10.987 51.611 9.351 48.169 Q 7.715 44.727 7.715 40.283 Q 7.715 35.84 9.351 32.398 Q 10.987 28.955 14.112 27.026 Q 17.237 25.098 21.583 25.098 Z" id="0"/>
    <path fill="#8A6BFF" d="M 72.413 3.32 L 72.413 27.637 Q 75.587 22.9 79.761 20.386 Q 83.936 17.871 88.77 17.871 Q 93.213 17.871 96.485 19.8 Q 99.756 21.729 101.514 25.342 Q 103.272 28.955 103.272 33.789 L 103.272 57.422 L 107.276 57.422 Q 108.936 57.422 109.644 58.179 Q 110.352 58.936 110.352 60.742 Q 110.352 62.549 109.644 63.306 Q 108.936 64.062 107.276 64.063 L 91.456 64.063 Q 89.796 64.063 89.088 63.306 Q 88.38 62.549 88.38 60.742 Q 88.38 58.936 89.088 58.179 Q 89.795 57.422 91.455 57.422 L 95.948 57.422 L 95.948 34.522 Q 95.948 30.176 93.946 27.637 Q 91.944 25.098 88.038 25.098 Q 83.887 25.098 80.298 27.49 Q 76.71 29.883 74.561 34.082 Q 72.413 38.281 72.413 43.457 L 72.413 57.422 L 76.905 57.422 Q 78.565 57.422 79.273 58.179 Q 79.981 58.936 79.981 60.742 Q 79.981 62.549 79.273 63.306 Q 78.565 64.062 76.905 64.063 L 61.085 64.063 Q 59.424 64.063 58.716 63.306 Q 58.008 62.549 58.008 60.742 Q 58.008 58.936 58.716 58.179 Q 59.424 57.422 61.084 57.422 L 65.088 57.422 L 65.088 6.641 L 60.596 6.641 Q 58.936 6.641 58.228 5.884 Q 57.52 5.127 57.52 3.32 Q 57.52 1.514 58.228 0.757 Q 58.936 0 60.596 0 L 69.337 0 Q 70.997 0 71.705 0.757 Q 72.413 1.514 72.413 3.32 Z" id="1"/>
    <path fill="#8A6BFF" d="M 143.702 17.871 Q 150.391 17.871 155.762 20.899 Q 161.133 23.926 164.185 29.321 Q 167.237 34.717 167.237 41.504 Q 167.237 48.291 164.185 53.687 Q 161.133 59.082 155.762 62.109 Q 150.391 65.137 143.702 65.137 Q 137.012 65.137 131.641 62.109 Q 126.27 59.082 123.218 53.687 Q 120.167 48.291 120.167 41.504 Q 120.167 34.717 123.218 29.321 Q 126.27 23.926 131.641 20.899 Q 137.012 17.871 143.702 17.871 Z M 143.702 25.098 Q 148.438 25.098 152.027 27.173 Q 155.616 29.248 157.569 32.983 Q 159.522 36.719 159.522 41.504 Q 159.522 46.289 157.569 50.025 Q 155.616 53.76 152.027 55.835 Q 148.438 57.91 143.702 57.91 Q 138.965 57.91 135.377 55.835 Q 131.788 53.76 129.835 50.025 Q 127.881 46.289 127.881 41.504 Q 127.881 36.719 129.835 32.983 Q 131.788 29.248 135.377 27.173 Q 138.965 25.098 143.702 25.098 Z" id="2"/>
    <path fill="#8A6BFF" d="M 222.706 21.045 L 222.706 30.322 Q 222.706 32.031 221.876 32.764 Q 221.046 33.496 219.044 33.496 Q 217.383 33.496 216.7 32.227 Q 214.6 28.223 210.596 26.587 Q 206.592 24.951 200.44 24.951 Q 195.704 24.951 193.043 26.636 Q 190.381 28.32 190.381 31.348 Q 190.381 32.91 191.382 33.887 Q 192.383 34.863 194.337 35.498 Q 195.948 36.035 198.072 36.328 Q 200.196 36.621 203.565 36.963 Q 208.301 37.5 211.207 37.964 Q 214.112 38.428 216.7 39.356 Q 220.606 40.772 222.779 43.457 Q 224.952 46.143 224.952 50.537 Q 224.952 54.932 222.73 58.228 Q 220.508 61.524 216.236 63.33 Q 211.963 65.137 206.006 65.137 Q 200.733 65.137 196.729 63.672 Q 192.725 62.207 189.747 59.229 L 189.747 61.963 Q 189.747 63.672 188.917 64.404 Q 188.087 65.137 186.085 65.137 Q 184.083 65.137 183.253 64.404 Q 182.422 63.672 182.422 61.963 L 182.422 50.244 Q 182.422 48.535 183.253 47.803 Q 184.083 47.07 186.085 47.07 Q 187.11 47.07 187.696 47.534 Q 188.282 47.998 188.721 49.072 Q 190.479 53.76 194.581 55.908 Q 198.682 58.057 205.518 58.057 Q 211.182 58.057 214.21 56.006 Q 217.237 53.955 217.237 50.537 Q 217.237 48.877 216.163 47.803 Q 215.088 46.729 213.087 46.045 Q 211.378 45.508 209.156 45.142 Q 206.934 44.775 203.516 44.434 Q 198.926 43.945 195.85 43.408 Q 192.774 42.871 190.186 41.846 Q 186.622 40.43 184.644 37.915 Q 182.667 35.4 182.667 31.348 Q 182.667 27.1 184.888 24.048 Q 187.11 20.996 191.041 19.434 Q 194.971 17.871 199.952 17.871 Q 204.688 17.871 208.619 19.287 Q 212.549 20.703 215.381 23.242 L 215.381 21.045 Q 215.381 19.336 216.212 18.604 Q 217.042 17.871 219.044 17.871 Q 221.046 17.871 221.876 18.604 Q 222.706 19.336 222.706 21.045 Z" id="3"/>
    <path fill="#8A6BFF" d="M 259.669 8.203 L 259.669 22.852 L 279.737 22.852 Q 281.397 22.852 282.105 23.608 Q 282.813 24.365 282.813 26.172 Q 282.813 27.979 282.105 28.735 Q 281.397 29.492 279.737 29.492 L 259.669 29.492 L 259.669 47.266 Q 259.669 52.832 261.597 55.42 Q 263.526 58.008 268.311 58.008 Q 271.583 58.008 275.196 56.69 Q 278.809 55.371 282.178 53.174 Q 282.862 52.686 283.692 52.686 Q 285.352 52.686 286.524 54.932 Q 287.159 56.201 287.159 57.129 Q 287.159 58.691 285.547 59.668 Q 281.739 62.061 277.051 63.599 Q 272.364 65.137 268.311 65.137 Q 260.01 65.137 256.177 60.816 Q 252.344 56.494 252.344 47.9 L 252.344 29.492 L 242.432 29.492 Q 240.772 29.492 240.064 28.735 Q 239.356 27.979 239.356 26.172 Q 239.356 24.365 240.064 23.608 Q 240.772 22.852 242.432 22.852 L 252.344 22.852 L 252.344 8.203 Q 252.344 6.494 253.174 5.762 Q 254.005 5.029 256.006 5.029 Q 258.008 5.029 258.838 5.762 Q 259.669 6.494 259.669 8.203 Z" id="4"/>
    <path d="M 45.02 99.045 L 45.02 113.205 Q 45.02 114.914 44.19 115.647 Q 43.36 116.379 41.358 116.379 Q 39.356 116.379 38.526 115.647 Q 37.696 114.914 37.696 113.205 Q 37.696 110.227 36.133 107.932 Q 34.571 105.637 31.47 104.367 Q 28.37 103.098 24.024 103.098 Q 19.337 103.098 15.626 105.197 Q 11.915 107.297 9.815 111.057 Q 7.715 114.816 7.715 119.504 Q 7.715 124.24 9.693 127.976 Q 11.671 131.711 15.259 133.811 Q 18.848 135.91 23.536 135.91 Q 28.028 135.91 32.252 134.519 Q 36.475 133.127 39.942 130.49 Q 40.967 129.709 41.846 129.709 Q 43.262 129.709 44.483 131.711 Q 45.215 132.932 45.215 134.055 Q 45.215 135.764 43.653 136.887 Q 39.747 139.816 34.424 141.477 Q 29.102 143.137 23.536 143.137 Q 16.553 143.137 11.207 140.061 Q 5.86 136.984 2.93 131.613 Q 0.001 126.242 0.001 119.504 Q 0.001 112.766 2.979 107.395 Q 5.958 102.024 11.304 98.947 Q 16.651 95.871 23.536 95.871 Q 27.881 95.871 31.519 97.458 Q 35.157 99.045 37.696 101.975 L 37.696 99.045 Q 37.696 97.336 38.526 96.604 Q 39.356 95.871 41.358 95.871 Q 43.36 95.871 44.19 96.604 Q 45.02 97.336 45.02 99.045 Z" id="5"/>
    <path d="M 88.087 81.32 L 88.087 135.422 L 103.76 135.422 Q 105.421 135.422 106.129 136.179 Q 106.837 136.936 106.837 138.742 Q 106.837 140.549 106.129 141.306 Q 105.421 142.062 103.761 142.063 L 65.479 142.063 Q 63.819 142.063 63.111 141.306 Q 62.403 140.549 62.403 138.742 Q 62.403 136.936 63.111 136.179 Q 63.819 135.422 65.479 135.422 L 80.762 135.422 L 80.762 84.641 L 67.432 84.641 Q 65.772 84.641 65.064 83.884 Q 64.356 83.127 64.356 81.32 Q 64.356 79.514 65.064 78.757 Q 65.772 78 67.432 78 L 85.01 78 Q 86.671 78 87.379 78.757 Q 88.087 79.514 88.087 81.32 Z" id="6"/>
    <path d="M 148.536 100.266 L 148.536 135.422 L 164.21 135.422 Q 165.87 135.422 166.578 136.179 Q 167.286 136.936 167.286 138.742 Q 167.286 140.549 166.578 141.306 Q 165.87 142.062 164.21 142.063 L 125.928 142.063 Q 124.268 142.063 123.56 141.306 Q 122.852 140.549 122.852 138.742 Q 122.852 136.936 123.56 136.179 Q 124.268 135.422 125.928 135.422 L 141.212 135.422 L 141.212 103.586 L 128.858 103.586 Q 127.198 103.586 126.49 102.829 Q 125.782 102.072 125.782 100.266 Q 125.782 98.459 126.49 97.702 Q 127.198 96.946 128.858 96.945 L 145.46 96.945 Q 147.12 96.945 147.828 97.702 Q 148.536 98.459 148.536 100.266 Z M 148.536 78.684 L 148.536 85.031 Q 148.536 86.789 147.559 87.497 Q 146.583 88.205 143.897 88.205 Q 141.212 88.205 140.235 87.497 Q 139.258 86.789 139.258 85.031 L 139.258 78.684 Q 139.258 76.926 140.235 76.218 Q 141.212 75.51 143.897 75.51 Q 146.583 75.51 147.559 76.218 Q 148.536 76.926 148.536 78.684 Z" id="7"/>
    <path d="M 224.903 99.045 L 224.903 113.205 Q 224.903 114.914 224.073 115.647 Q 223.243 116.379 221.241 116.379 Q 219.239 116.379 218.409 115.647 Q 217.579 114.914 217.579 113.205 Q 217.579 110.227 216.016 107.932 Q 214.454 105.637 211.353 104.367 Q 208.253 103.098 203.907 103.098 Q 199.219 103.098 195.508 105.197 Q 191.797 107.297 189.698 111.057 Q 187.598 114.816 187.598 119.504 Q 187.598 124.24 189.576 127.976 Q 191.553 131.711 195.142 133.811 Q 198.731 135.91 203.419 135.91 Q 207.911 135.91 212.134 134.519 Q 216.358 133.127 219.825 130.49 Q 220.85 129.709 221.729 129.709 Q 223.145 129.709 224.366 131.711 Q 225.098 132.932 225.098 134.055 Q 225.098 135.764 223.536 136.887 Q 219.63 139.816 214.307 141.477 Q 208.985 143.137 203.419 143.137 Q 196.436 143.137 191.089 140.061 Q 185.743 136.984 182.813 131.613 Q 179.883 126.242 179.883 119.504 Q 179.883 112.766 182.862 107.395 Q 185.84 102.024 191.187 98.947 Q 196.534 95.871 203.419 95.871 Q 207.764 95.871 211.402 97.458 Q 215.04 99.045 217.579 101.975 L 217.579 99.045 Q 217.579 97.336 218.409 96.604 Q 219.239 95.871 221.241 95.871 Q 223.243 95.871 224.073 96.604 Q 224.903 97.336 224.903 99.045 Z" id="8"/>
    <path d="M 287.159 142.063 L 271.338 142.063 Q 269.678 142.063 268.97 141.306 Q 268.262 140.549 268.262 138.742 Q 268.262 136.936 268.97 136.179 Q 269.678 135.422 271.338 135.422 L 274.854 135.422 L 262.598 120.871 L 253.712 128.684 L 253.712 135.422 L 257.276 135.422 Q 258.936 135.422 259.644 136.179 Q 260.352 136.936 260.352 138.742 Q 260.352 140.549 259.644 141.306 Q 258.936 142.062 257.276 142.063 L 240.967 142.063 Q 239.307 142.063 238.599 141.306 Q 237.891 140.549 237.891 138.742 Q 237.891 136.936 238.599 136.179 Q 239.307 135.422 240.967 135.422 L 246.387 135.422 L 246.387 84.641 L 239.991 84.641 Q 238.331 84.641 237.623 83.884 Q 236.915 83.127 236.915 81.32 Q 236.915 79.514 237.623 78.757 Q 238.331 78 239.99 78 L 250.635 78 Q 252.296 78 253.004 78.757 Q 253.712 79.514 253.712 81.32 L 253.712 119.992 L 272.315 103.586 L 268.848 103.586 Q 267.188 103.586 266.48 102.829 Q 265.772 102.072 265.772 100.266 Q 265.772 98.459 266.48 97.702 Q 267.188 96.946 268.848 96.945 L 285.157 96.945 Q 286.817 96.945 287.525 97.702 Q 288.233 98.459 288.233 100.266 Q 288.233 102.072 287.525 102.829 Q 286.817 103.586 285.157 103.586 L 282.276 103.586 L 267.921 116.233 L 284.327 135.422 L 287.159 135.422 Q 288.819 135.422 289.527 136.179 Q 290.235 136.936 290.235 138.742 Q 290.235 140.549 289.527 141.306 Q 288.819 142.062 287.159 142.063 Z" id="9"/>
  </g>
</svg>
