<svg xmlns="http://www.w3.org/2000/svg" viewBox="160 145 118 1" width="180" height="180">
  <g>
    <path d="M221.323 90.159c-28 0-46 20-46 46v60l12-11 12 11 12-11 10 11 12-11 12 11 12-11v-49c0-26-8-46-36-46Z" fill="#8A6BFF" stroke="#0D0D0D" stroke-width="2.5" stroke-linejoin="round"></path>
    <rect x="208.323" y="122.159" width="9" height="15" rx="4.5" fill="#0D0D0D"></rect>
    <rect x="225.323" y="122.159" width="9" height="15" rx="4.5" fill="#0D0D0D"></rect>
    <path d="M305.085 351.141c-11.768-2.015-16.728-9.721-20.538-20.127-12.015-32.812-24.981-65.275-37.557-97.882a128484 128484 0 0 1-53.118-137.888c-1.839-4.784-3.843-9.495-2.741-14.975 2.579-12.816 14.689-19.724 26.857-15.054 44.278 16.995 88.561 33.978 132.831 50.991 38.06 14.627 76.158 29.154 114.124 44.02 11.358 4.447 15.743 15.975 11.136 26.645-2.361 5.468-6.783 8.492-12.062 10.53a42991 42991 0 0 1-61.955 23.858c-11.65 4.478-23.29 8.981-34.982 13.345-2.533.946-4.146 2.339-5.124 4.927-10.77 28.483-21.622 56.934-32.47 85.388-1.836 4.815-3.643 9.647-5.663 14.386-3.067 7.191-9.227 10.123-16.75 11.664-.766.172-1.211.172-1.988.172M77.374 93.295c3.771-1.113 7.226-1.318 10.743-1.297 15.639.095 31.279.077 46.918.14 4.452.018 8.747.751 11.546 4.689 4.973 6.996.433 17.139-8.334 17.343-18.955.44-37.929.216-56.893.008-4.739-.052-8.138-2.948-9.616-7.478-1.724-5.284.157-9.653 5.636-13.405M241.755-24.858c-.046 11.662.131 22.831-.207 33.984-.303 9.999-8.947 15.344-16.815 10.783-3.936-2.282-5.154-6.081-5.181-10.18-.12-17.826-.13-35.654-.014-53.48.045-6.873 4.396-11.798 10.173-12.122 6.198-.347 10.899 3.47 11.61 10.555.663 6.601.329 13.303.434 20.46M131.137 19.757c-4.781-4.877-9.443-9.392-13.765-14.212-3.309-3.689-3.817-8.026-1.334-12.478 2.534-4.544 6.658-5.662 11.49-5.221 2.662.243 4.605 1.713 6.406 3.518 12.455 12.476 24.956 24.905 37.37 37.421 5.419 5.463 5.788 11.934 1.189 16.811-4.221 4.476-10.906 4.364-16.442-.933-8.397-8.036-16.451-16.432-24.914-24.906m-4.852 171.924c10.278-10.229 20.207-20.31 30.386-30.131 6.158-5.941 14.254-4.579 17.848 2.677 2.286 4.613 1.306 8.962-2.118 12.412a3607 3607 0 0 1-39.686 39.334c-4.028 3.935-10.515 3.791-14.534.148-4.272-3.873-4.948-10.303-1.164-14.872 2.749-3.318 5.998-6.223 9.268-9.568M315.416 2.804c3.889-3.894 7.515-7.553 11.158-11.195 4.626-4.626 11.781-5.11 16.165-1.182 4.324 3.875 4.326 11.774-.1 16.061-13.244 12.825-26.067 26.084-39.236 38.989-4.46 4.371-11.213 4.008-15.27-.211-3.932-4.09-3.848-11.32.555-15.81 8.727-8.898 17.637-17.616 26.728-26.652" transform="translate(202 148)scale(.15696)" fill="#0D0D0D"></path>
  </g>
</svg>